# xmcd
#
# Track frame offsets: 
#        150
#        13644
#        30870
#        42444
#        53520
#        65716
#        75847
#        90036
#        104746
#        118267
#        129457
#        139296
#        151705
#        163599
#        175249
#        185157
#        197263
#        208701
#        220105
#        234978
#        250210
#        262327
#
# Disc length: 3649 seconds
#
# Revision: 0
# Processed by: cddbd v1.4PL0 Copyright (c) Steve Scherf et al.
# Submitted via: ExactAudioCopy v0.95a3
#
DISCID=280e3f16
DTITLE=Willie Nelson - Funny How Time Slips Away [UK]
DYEAR=1997
DGENRE=Country
TTITLE0=Willie Nelson/Fire And Rain
TTITLE1=Willie Nelson/Me And Paul
TTITLE2=Willie Nelson/Crazy Arms
TTITLE3=Willie Nelson/Night Life
TTITLE4=Willie Nelson/Funny How Time Slips Away
TTITLE5=Willie Nelson/Hello Walls
TTITLE6=Willie Nelson/If You Can Touch Her At All
TTITLE7=Willie Nelson/Yesterday's Wine
TTITLE8=Willie Nelson/Help Me Make It Through The Night
TTITLE9=Willie Nelson/Good Times
TTITLE10=Willie Nelson/Mountain Dew
TTITLE11=Willie Nelson/You Ought To Hear Me Cry
TTITLE12=Willie Nelson/One In A Row
TTITLE13=Willie Nelson/She's Not For You
TTITLE14=Willie Nelson/San Antonio Rose
TTITLE15=Willie Nelson/Once More With Feeling
TTITLE16=Willie Nelson/I'm A Memory
TTITLE17=Willie Nelson/Pretty Paper
TTITLE18=Willie Nelson/Sweet Memories
TTITLE19=Willie Nelson/Little Things
TTITLE20=Willie Nelson/Laying My Burdens Down
TTITLE21=Willie Nelson/Party's Over
EXTD=
EXTT0=
EXTT1=
EXTT2=
EXTT3=
EXTT4=
EXTT5=
EXTT6=
EXTT7=
EXTT8=
EXTT9=
EXTT10=
EXTT11=
EXTT12=
EXTT13=
EXTT14=
EXTT15=
EXTT16=
EXTT17=
EXTT18=
EXTT19=
EXTT20=
EXTT21=
PLAYORDER=
